# xmcd
#
# Track frame offsets:
#	150
#	770
#	18950
#	41937
#	58730
#	81445
#	102212
#	126817
#	151225
#	172337
#	191712
#	208302
#	233862
#	257187
#
# Disc length: 3783 seconds
#
# Revision: 1
# Processed by: cddbd v1.5PL3 Copyright (c) Steve Scherf et al.
# Submitted via: CDex 1.50Beta5
#
DISCID=c00ec50e
DTITLE=嶋野百恵 - Girls Voice Studio 11
DYEAR=2002
DGENRE=Rock
TTITLE0=Girls Voice Studio 11
TTITLE1=キイドア
TTITLE2=Cover Girl
TTITLE3=悦楽の憂鬱
TTITLE4=Did It Again?
TTITLE5=静かに逃して。
TTITLE6=Cream
TTITLE7=Meeting<Extended Club Mix>
TTITLE8=Double Name
TTITLE9=jelly fish
TTITLE10=屋根裏のセオリー
TTITLE11=めまい
TTITLE12=Lesson vs.Mummy-D
TTITLE13=沈黙と赤いあげは
EXTD=
EXTT0=
EXTT1=
EXTT2=
EXTT3=
EXTT4=
EXTT5=
EXTT6=
EXTT7=
EXTT8=
EXTT9=
EXTT10=
EXTT11=
EXTT12=
EXTT13=
PLAYORDER=
